<?xml version="1.0" encoding="UTF-8"?>
<svg version="1.1" xmlns="http://www.w3.org/2000/svg" width="698" height="765">
<path d="M0 0 C230.34 0 460.68 0 698 0 C698 252.45 698 504.9 698 765 C467.66 765 237.32 765 0 765 C0 512.55 0 260.1 0 0 Z " fill="#FEFEFE" transform="translate(0,0)"/>
<path d="M0 0 C90.09 0 180.18 0 273 0 C275.22418879 6.67256637 275.22418879 6.67256637 276.0078125 10.1796875 C281.28198008 32.62539661 291.61249918 51.36363581 311.0625 64.625 C320.01627267 70.11238354 330.07551532 73.69183844 340 77 C340 101.75 340 126.5 340 152 C346.27 149.36 352.54 146.72 359 144 C364.07983748 141.8912611 369.15976507 139.7837637 374.24560547 137.68969727 C376.39749035 136.80323517 378.54835953 135.91433797 380.69921875 135.02539062 C387.23198925 132.3300303 393.77570366 129.66285994 400.3515625 127.07421875 C401.88417725 126.47033325 401.88417725 126.47033325 403.44775391 125.85424805 C406 125 406 125 409 125 C420.58216013 150.87127302 420.58216013 150.87127302 425.75 163 C426.08451172 163.77512939 426.41902344 164.55025879 426.76367188 165.34887695 C428.04606107 168.38627782 429 170.66796058 429 174 C428.35029739 174.21582733 427.70059479 174.43165466 427.03120422 174.65402222 C419.45452649 177.17134736 411.87867458 179.69115027 404.30332184 182.21245956 C402.32276994 182.87158219 400.34214317 183.53047951 398.36151123 184.18936157 C382.43254767 189.48937816 366.50725721 194.79558165 350.68481445 200.40771484 C349.17407349 200.93872803 349.17407349 200.93872803 347.6328125 201.48046875 C346.79637207 201.77848389 345.95993164 202.07649902 345.09814453 202.38354492 C343 203 343 203 340 203 C340.00666183 204.21426163 340.01332367 205.42852325 340.02018738 206.67958069 C340.08148249 218.22456086 340.12620196 229.76950724 340.15543652 241.3146143 C340.17097238 247.24749186 340.19198478 253.18023619 340.22631836 259.11303711 C340.25934911 264.85785128 340.27694332 270.60253878 340.28463173 276.34744072 C340.29009798 278.51945421 340.30076695 280.69146221 340.31719017 282.86342049 C340.45344753 301.66213829 339.3797748 320.55924662 334.25 338.75 C333.99395996 339.6891626 333.73791992 340.6283252 333.47412109 341.59594727 C324.4628071 373.77106387 308.28439151 402.00463471 285 426 C284.43410156 426.59167969 283.86820312 427.18335938 283.28515625 427.79296875 C275.24544643 436.17847254 266.97727819 443.82800731 257.65673828 450.76660156 C256.0317917 451.97633191 254.41894444 453.20061762 252.80859375 454.4296875 C243.44538407 461.53281209 233.886775 468.21796562 223.875 474.375 C222.95686523 474.94025391 222.03873047 475.50550781 221.09277344 476.08789062 C206.10717294 485.26402635 190.6373128 493.36665485 175.02978516 501.43066406 C170.63543373 503.70680354 166.25430123 506.00758082 161.875 508.3125 C161.11380859 508.70977295 160.35261719 509.1070459 159.56835938 509.51635742 C155.90657062 511.43369742 152.28491136 513.39464964 148.70703125 515.46484375 C147.68730225 516.04335083 147.68730225 516.04335083 146.64697266 516.63354492 C145.3854664 517.35231742 144.1328564 518.08705497 142.89208984 518.84106445 C140.08732927 520.424658 138.55438159 521.13519365 135.37402344 520.35961914 C131.0579148 518.62037102 126.95387863 516.57397037 122.81640625 514.44921875 C121.49005913 513.77349571 121.49005913 513.77349571 120.13691711 513.0841217 C117.27605349 511.62383654 114.41896786 510.1563632 111.5625 508.6875 C110.59080872 508.18923706 109.61911743 507.69097412 108.61798096 507.1776123 C95.00292002 500.19115487 81.49003495 493.09282782 68.29052734 485.34228516 C66.03172496 484.01859133 63.76185741 482.71608975 61.48828125 481.41796875 C46.68357096 472.91475904 32.46461019 463.50318566 19 453 C18.14148438 452.33484375 17.28296875 451.6696875 16.3984375 450.984375 C11.1994562 446.896012 6.23943022 442.59999907 1.359375 438.13671875 C-0.68167962 436.28828021 -2.76374282 434.51665115 -4.875 432.75 C-15.77323981 423.18668515 -24.65799047 411.79027856 -33 400 C-33.40847168 399.42701172 -33.81694336 398.85402344 -34.23779297 398.26367188 C-44.99806959 382.97821393 -60 358.03253928 -60 339 C-61.35242798 339.4633374 -61.35242798 339.4633374 -62.73217773 339.93603516 C-86.12386706 347.94712961 -109.53465401 355.90139964 -132.95506668 363.82805634 C-135.11069219 364.55765733 -137.26627241 365.28739201 -139.42184448 366.01715088 C-142.88043984 367.18797959 -146.33918399 368.35836775 -149.7980442 369.52841377 C-151.67806158 370.1644264 -153.55798879 370.80070553 -155.43791199 371.43699646 C-157.77128799 372.22598318 -160.10541827 373.01274324 -162.44035339 373.79710388 C-164.9696363 374.65181361 -167.49364853 375.51699189 -170.01533508 376.39344788 C-171.35191984 376.85236056 -172.68852317 377.31121915 -174.02514648 377.77001953 C-175.22106918 378.18502716 -176.41699188 378.60003479 -177.64915466 379.02761841 C-182.48354463 380.43050972 -186.94581849 380.56499751 -191.9375 380.3125 C-192.82373047 380.28994141 -193.70996094 380.26738281 -194.62304688 380.24414062 C-196.74947867 380.1866695 -198.87500814 380.09708085 -201 380 C-191.39203748 370.19187159 -180.6836899 365.40808259 -168.15478516 360.29052734 C-164.80965265 358.92213465 -161.47271777 357.53503482 -158.13671875 356.14453125 C-145.18087076 350.75176408 -132.19324696 345.43810513 -119.19189453 340.15600586 C-110.69668164 336.70128595 -102.22082933 333.20142684 -93.75 329.6875 C-84.19267812 325.72333688 -74.62170236 321.80512237 -65 318 C-65.05956312 317.34711943 -65.11912624 316.69423885 -65.18049431 316.02157402 C-67.31709662 291.54045663 -67.26572211 267.10983086 -67.20278788 242.55307245 C-67.19009938 236.74761601 -67.189096 230.94215641 -67.18673706 225.13668823 C-67.18057461 214.1941338 -67.16423638 203.25162037 -67.14403808 192.30908382 C-67.12151391 179.82979214 -67.11064455 167.35049828 -67.10064721 154.87119126 C-67.07986413 129.2474383 -67.04479252 103.62372147 -67 78 C-66.18428024 77.66258286 -65.36856049 77.32516571 -64.52812195 76.9775238 C-63.45367325 76.53175491 -62.37922455 76.08598602 -61.2722168 75.62670898 C-60.20899704 75.18616684 -59.14577728 74.74562469 -58.05033875 74.29173279 C-54.23540813 72.67621682 -50.51059073 70.92770669 -46.8125 69.0625 C-46.13541992 68.72186523 -45.45833984 68.38123047 -44.76074219 68.03027344 C-37.78518465 64.46394862 -31.46142504 60.67988204 -26 55 C-25.34 55 -24.68 55 -24 55 C-23.59007812 54.10667969 -23.59007812 54.10667969 -23.171875 53.1953125 C-22.03924984 51.07352802 -20.88337128 49.62253164 -19.25 47.875 C-7.3476028 34.17710736 -4.34217751 17.36871002 0 0 Z " fill="#384B9C" transform="translate(228,160)"/>
<path d="M0 0 C86.46 0 172.92 0 262 0 C263.65 6.6 265.3 13.2 267 20 C268.57441091 23.896667 270.04111928 27.35413367 272 31 C272.37769531 31.76054687 272.75539063 32.52109375 273.14453125 33.3046875 C276.33949212 39.48089949 280.46695387 44.74797944 285 50 C285.53238281 50.61746094 286.06476563 51.23492187 286.61328125 51.87109375 C297.67645444 63.75782822 312.39753589 69.7418011 327 76 C327 99.76 327 123.52 327 148 C320.67815188 151.16092406 314.60468088 154.08601731 308.0625 156.625 C306.30824786 157.31683193 304.55436153 158.0095919 302.80078125 158.703125 C301.86830566 159.07115234 300.93583008 159.43917969 299.97509766 159.81835938 C294.5536484 161.97163481 289.15193244 164.1733138 283.75 166.375 C282.6151416 166.83737061 281.4802832 167.29974121 280.31103516 167.77612305 C271.53600982 171.35833669 262.78139024 174.98826592 254.04003906 178.65185547 C251.36214855 179.77308605 248.68157603 180.88761671 246 182 C245.07719238 182.38687988 244.15438477 182.77375977 243.20361328 183.17236328 C242.31270996 183.53958496 241.42180664 183.90680664 240.50390625 184.28515625 C239.31196655 184.7802771 239.31196655 184.7802771 238.09594727 185.28540039 C236 186 236 186 233 186 C234.28055437 175.18095732 240.8484372 164.99292313 248 157 C248.65484375 156.25234375 249.3096875 155.5046875 249.984375 154.734375 C258.85828233 145.21273721 269.93147708 139.52297796 282 135 C281.43152344 134.6596875 280.86304688 134.319375 280.27734375 133.96875 C271.02140036 128.15867535 265.05045887 121.66713258 262 111 C262 110.01 262 109.02 262 108 C261.34 108 260.68 108 260 108 C261.47359528 115.94848363 262.96015825 122.9628563 267 130 C267.67417298 131.32955369 268.34269801 132.66202529 269 134 C267.88882812 134.54527344 266.77765625 135.09054687 265.6328125 135.65234375 C256.60617324 140.19052037 249.06495387 144.65730839 242 152 C242 148.8074781 242.58441608 147.31209934 243.86328125 144.4296875 C244.45206055 143.08390625 244.45206055 143.08390625 245.05273438 141.7109375 C245.67631836 140.30714844 245.67631836 140.30714844 246.3125 138.875 C256.99516729 114.74955042 259.93080628 90.04330733 250.52734375 64.94921875 C244.12974784 48.93871529 234.32864991 34.05222279 222 22 C223.32235204 25.38668631 224.75801803 28.68238682 226.3203125 31.96484375 C243.77060541 69.01580647 254.75426451 105.5152245 240.80224609 145.88134766 C237.89745058 153.55262442 233.82496571 160.72480895 229.84765625 167.87890625 C229.14756777 169.14795809 228.44833702 170.41748352 227.75 171.6875 C227.4092041 172.29972412 227.0684082 172.91194824 226.71728516 173.54272461 C223.99879174 178.59029835 222.54498076 183.6472867 221.47265625 189.29296875 C219.15124878 193.56017134 215.40440449 194.36718763 211 196 C209.51784499 196.62446453 208.03859331 197.25587017 206.5625 197.89453125 C202.54917413 199.58607314 198.53027461 201.26428836 194.51171875 202.94335938 C192.0334087 203.98594549 189.56307052 205.04569829 187.09375 206.109375 C185.56257854 206.76060136 184.0313318 207.41165075 182.5 208.0625 C181.7884375 208.37356689 181.076875 208.68463379 180.34375 209.00512695 C175.33959794 211.11319931 175.33959794 211.11319931 172 210 C171.14881609 168.64555698 171.14881609 168.64555698 177 153 C167.10707238 161.5738706 165.70469009 182.13826301 164.734375 194.34033203 C164.32485468 201.22243919 164.10529411 208.10686685 164 215 C157.5354673 218.37953988 150.92333444 221.11478703 144.125 223.75 C143.08085937 224.16121094 142.03671875 224.57242188 140.9609375 224.99609375 C133.25656665 228 133.25656665 228 131 228 C131 156.72 131 85.44 131 12 C90.74 12 50.48 12 9 12 C8.67 14.31 8.34 16.62 8 19 C4.48752464 33.69803677 -3.91131475 46.94124886 -14 58 C-14.69609375 58.77730469 -15.3921875 59.55460937 -16.109375 60.35546875 C-25.98652135 70.82740676 -39.27867491 79.42622497 -53 84 C-53.02341834 110.02665419 -53.04102292 136.05330678 -53.05181217 162.07996941 C-53.0569562 174.1661095 -53.06396263 186.25224303 -53.07543945 198.33837891 C-53.08544433 208.8795027 -53.09186718 219.42062174 -53.09408849 229.96175015 C-53.09538578 235.53693362 -53.09840896 241.11210348 -53.10573006 246.68728256 C-53.11258209 251.94851676 -53.11459852 257.20973191 -53.11310768 262.47097015 C-53.11337992 264.3888039 -53.11533004 266.30663838 -53.11920547 268.22446823 C-53.14216597 280.18658506 -52.79764851 292.0635914 -52 304 C-57.445 305.98 -57.445 305.98 -63 308 C-66.06670008 301.86659984 -65.14388087 293.14590829 -65.12025452 286.40744019 C-65.12110894 285.49643087 -65.12196337 284.58542155 -65.12284368 283.64680588 C-65.12447808 280.62372886 -65.11901083 277.60070854 -65.11352539 274.57763672 C-65.11324305 272.3988495 -65.11340217 270.22006219 -65.1139679 268.04127502 C-65.11425405 262.14741868 -65.10838676 256.2535828 -65.10139394 250.3597312 C-65.09513007 244.19246875 -65.0945542 238.02520581 -65.09336853 231.85794067 C-65.09026415 220.18870797 -65.08206281 208.51948466 -65.07201904 196.85025609 C-65.06083015 183.56128139 -65.05534046 170.27230785 -65.05032361 156.98332953 C-65.03987945 129.65554782 -65.02229732 102.32777444 -65 75 C-63.18145508 74.3181665 -63.18145508 74.3181665 -61.32617188 73.62255859 C-59.70689951 73.00653106 -58.08776625 72.39013781 -56.46875 71.7734375 C-55.27523926 71.32762329 -55.27523926 71.32762329 -54.05761719 70.87280273 C-34.37312566 63.3351319 -19.72982854 49.04827256 -9.8125 30.625 C-4.87698585 20.04016729 -4.87698585 20.04016729 0 0 Z " fill="#FDFDFE" transform="translate(234,167)"/>
<path d="M0 0 C0.07031933 11.64207449 0.12321856 23.28409634 0.15543652 34.92634201 C0.17091975 40.33557525 0.19182956 45.7446605 0.22631836 51.15380859 C0.61466524 113.78292377 0.61466524 113.78292377 -9 142 C-9.25765137 142.79132324 -9.51530273 143.58264648 -9.78076172 144.39794922 C-22.12272054 182.15210198 -47.58893423 215.12514501 -79.34277344 238.75292969 C-80.97194984 239.97889213 -82.57072808 241.23572285 -84.1640625 242.5078125 C-92.71108473 249.3015994 -101.73804357 255.22939272 -111 261 C-111.59973633 261.37447266 -112.19947266 261.74894531 -112.81738281 262.13476562 C-117.1670805 264.83389737 -121.57226143 267.43128078 -126 270 C-126.79083984 270.46116211 -127.58167969 270.92232422 -128.39648438 271.39746094 C-143.2975841 280.04009878 -158.54182058 287.97032382 -173.875 295.8125 C-174.84771851 296.3104306 -175.82043701 296.80836121 -176.82263184 297.32138062 C-179.60671131 298.74477578 -182.39268903 300.16436122 -185.1796875 301.58203125 C-186.0254837 302.01367584 -186.87127991 302.44532043 -187.7427063 302.89004517 C-188.52354584 303.285737 -189.30438538 303.68142883 -190.10888672 304.08911133 C-190.79071014 304.43549149 -191.47253357 304.78187164 -192.17501831 305.13874817 C-194 306 -194 306 -197 307 C-199.53556355 305.92913405 -201.89154375 304.79645717 -204.31640625 303.51171875 C-205.0408493 303.13757339 -205.76529236 302.76342804 -206.51168823 302.37794495 C-208.86728097 301.15773891 -211.21490646 299.92301596 -213.5625 298.6875 C-215.17098965 297.84997937 -216.77979525 297.01306525 -218.38891602 296.17675781 C-227.83140185 291.25539886 -237.19989761 286.21745619 -246.46484375 280.96875 C-249.75522846 279.1134102 -253.10827349 277.41402602 -256.5 275.75 C-261.85968799 273.11807619 -266.94153762 270.16848743 -272 267 C-272.87269531 266.45472656 -273.74539063 265.90945313 -274.64453125 265.34765625 C-290.60166803 255.28027811 -306.16020999 244.84687097 -320.37719727 232.41821289 C-321.54277895 231.39957832 -322.71311393 230.38637317 -323.88647461 229.37670898 C-352.69412471 204.47078803 -377.02630727 171.62262479 -386 134 C-386 132.68 -386 131.36 -386 130 C-381.07437927 128.26112101 -376.14481135 126.53413935 -371.21118164 124.81811523 C-369.53295521 124.23251373 -367.8558597 123.64366078 -366.17993164 123.05151367 C-363.77258652 122.20156909 -361.36143388 121.36335048 -358.94921875 120.52734375 C-358.19912033 120.25969711 -357.44902191 119.99205048 -356.67619324 119.71629333 C-351.34161512 117.88612829 -351.34161512 117.88612829 -348 119 C-347.26171875 121.1953125 -347.26171875 121.1953125 -346.6875 124.125 C-340.44610373 151.27829097 -323.97641636 173.20599637 -300.6875 188.1875 C-284.37224824 197.91464535 -266.75647205 203.4178035 -247.75 203.3125 C-246.75581055 203.31048584 -245.76162109 203.30847168 -244.73730469 203.30639648 C-235.4824796 203.18139197 -226.8066698 201.9355566 -218 199 C-219.02601318 199.01571045 -219.02601318 199.01571045 -220.07275391 199.03173828 C-255.02469783 199.49604021 -284.24171373 193.05878009 -310 168 C-322.69076031 155.16360801 -336.76420827 135.14367852 -337.03930664 116.30883789 C-337.01984985 115.16596313 -337.01984985 115.16596313 -337 114 C-329.28019029 110.83700717 -321.48506113 107.92008403 -313.625 105.125 C-312.46355469 104.69703125 -311.30210937 104.2690625 -310.10546875 103.828125 C-308.43291016 103.23644531 -308.43291016 103.23644531 -306.7265625 102.6328125 C-305.72189941 102.27074707 -304.71723633 101.90868164 -303.68212891 101.53564453 C-301 101 -301 101 -298.88891602 101.73657227 C-298.26557373 102.15350342 -297.64223145 102.57043457 -297 103 C-296.36360596 103.40065674 -295.72721191 103.80131348 -295.0715332 104.21411133 C-259.77229327 128.10944072 -231.05838826 151.89838097 -216 193 C-217.42427099 164.03982325 -232.32011018 137.74047564 -253.01953125 118.08203125 C-254.97712136 116.33973618 -256.97612002 114.66474416 -259 113 C-259.83144531 112.29230469 -260.66289062 111.58460938 -261.51953125 110.85546875 C-268.05071964 105.37076548 -274.82151192 100.59774018 -282 96 C-279.92526788 93.92526788 -278.94233147 93.48691825 -276.22924805 92.60229492 C-275.44661591 92.34364655 -274.66398376 92.08499817 -273.8576355 91.81851196 C-272.57265671 91.40368057 -272.57265671 91.40368057 -271.26171875 90.98046875 C-270.36494415 90.68522308 -269.46816956 90.38997742 -268.54421997 90.08578491 C-266.60528809 89.44773039 -264.66551425 88.81223006 -262.7250061 88.1789856 C-257.61184009 86.50997481 -252.50483596 84.82239813 -247.3984375 83.1328125 C-245.8443795 82.6189373 -245.8443795 82.6189373 -244.25892639 82.09468079 C-232.46536371 78.18100408 -220.75274121 74.04240753 -209.05151367 69.86206055 C-207.94644974 69.4690123 -207.94644974 69.4690123 -206.81906128 69.06802368 C-205.4511865 68.58123206 -204.0842757 68.09171956 -202.71853638 67.59896851 C-198.2242757 66 -198.2242757 66 -196 66 C-196 140.91 -196 215.82 -196 293 C-181.36746384 285.68373192 -166.91678938 278.3667594 -152.62744141 270.44824219 C-150.06558083 269.03614807 -147.49399501 267.6438673 -144.91796875 266.2578125 C-110.98118239 247.94209012 -75.81522781 225.96920929 -52 195 C-51.32710938 194.19304687 -50.65421875 193.38609375 -49.9609375 192.5546875 C-35.23951631 174.87761418 -25.06410822 153.39195668 -18.8125 131.375 C-18.57450684 130.56023193 -18.33651367 129.74546387 -18.09130859 128.90600586 C-13.4045796 111.61897149 -12.54335019 93.97670885 -12.48828125 76.16796875 C-12.47137848 74.06804903 -12.45322106 71.96813907 -12.43388367 69.86824036 C-12.38698411 64.41874246 -12.35679049 58.96928414 -12.33044434 53.51965332 C-12.3003307 47.92773618 -12.25390884 42.33595491 -12.20898438 36.74414062 C-12.12363717 25.82949905 -12.05599221 14.91482897 -12 4 C-10.3767313 3.3291288 -8.75132422 2.66342971 -7.125 2 C-5.76761719 1.443125 -5.76761719 1.443125 -4.3828125 0.875 C-2 0 -2 0 0 0 Z " fill="#FDFDFE" transform="translate(561,366)"/>
<path d="M0 0 C1.25804403 2.31186135 2.32737002 4.54456654 3.35546875 6.95703125 C3.66196854 7.65640305 3.96846832 8.35577484 4.28425598 9.07633972 C4.93059637 10.5578438 5.57163066 12.04167234 6.20776367 13.52758789 C7.18156308 15.79865409 8.17428226 18.06070264 9.16992188 20.32226562 C9.79541908 21.7625227 10.41980504 23.203263 11.04296875 24.64453125 C11.3397905 25.32070999 11.63661224 25.99688873 11.94242859 26.69355774 C13.38607128 30.09255577 14 32.23786437 14 36 C-7.12197873 43.42354763 -28.2500673 50.81613386 -49.50524902 57.85070801 C-61.02790322 61.66432372 -72.52114035 65.55655492 -84 69.5 C-96.35685965 73.74282362 -108.72791091 77.93862578 -121.125 82.0625 C-121.86761078 82.30955688 -122.61022156 82.55661377 -123.37533569 82.81115723 C-129.30429541 84.78294779 -135.23453986 86.75086213 -141.16497803 88.71820068 C-167.20347624 97.35677882 -193.18385624 106.16010628 -219.14599609 115.02545166 C-221.89153527 115.96296287 -224.63715771 116.90022979 -227.3828125 117.83740234 C-235.83620095 120.72286121 -244.28926408 123.60927288 -252.7421875 126.49609375 C-253.57475067 126.78042267 -254.40731384 127.06475159 -255.2651062 127.35769653 C-259.66821412 128.8615487 -264.07108453 130.36609225 -268.47363281 131.87158203 C-293.98696732 140.59567381 -319.53172957 149.21545561 -345.12414551 157.70458984 C-378.18319466 168.67148628 -411.15313963 179.89784512 -444.11157227 191.16308594 C-461.82341445 197.21695616 -479.54110818 203.25356857 -497.26516724 209.27157593 C-499.89425549 210.16431876 -502.52305027 211.05791748 -505.15158081 211.95230103 C-508.85553341 213.21253814 -512.56053518 214.4696725 -516.265625 215.7265625 C-517.35885574 216.09892532 -518.45208649 216.47128815 -519.57844543 216.85493469 C-526.08418312 219.05845224 -532.61678576 221.14390088 -539.18890381 223.14096069 C-544.59233641 224.79218878 -549.92575749 226.59956736 -555.2265625 228.5546875 C-555.98936523 228.8326416 -556.75216797 229.1105957 -557.53808594 229.39697266 C-559.07808427 229.95910744 -560.61530315 230.52892487 -562.14941406 231.10693359 C-567.66382209 233.1120593 -567.66382209 233.1120593 -571 232 C-549.21292014 222.93882359 -527.40863425 213.92209179 -505.5632019 205.00244141 C-491.46490548 199.24528373 -477.38382862 193.44773775 -463.3125 187.625 C-445.17928048 180.12245871 -427.01945299 172.68677255 -408.84741211 165.27880859 C-406.80842687 164.44760126 -404.76944571 163.61638391 -402.73046875 162.78515625 C-401.237183 162.17640656 -401.237183 162.17640656 -399.71372986 161.55535889 C-390.09546466 157.63327971 -380.48401256 153.69468552 -370.875 149.75 C-370.08771515 149.42681793 -369.3004303 149.10363586 -368.48928833 148.7706604 C-364.56403531 147.15923012 -360.63891813 145.54746931 -356.71386719 143.93554688 C-349.45922817 140.95644122 -342.2033356 137.98039074 -334.9475708 135.00402832 C-330.8816657 133.33613628 -326.81583659 131.66805903 -322.75 130 C-321.12500037 129.33333244 -319.50000037 128.66666577 -317.875 128 C-317.070625 127.67 -316.26625 127.34 -315.4375 127 C-113.12500002 44.00000001 -113.12500002 44.00000001 -110.68753052 43.00001526 C-109.06242623 42.33330398 -107.4373245 41.66658645 -105.81222534 40.99986267 C-101.75134198 39.3338273 -97.6904142 37.66790036 -93.62939453 36.00219727 C-84.65860972 32.3225108 -75.68896966 28.64005887 -66.72070312 24.95423889 C-60.26826013 22.30298875 -53.81279423 19.65916302 -47.35644531 17.0174408 C-42.25951917 14.93037846 -37.16833933 12.82983244 -32.08010864 10.72166443 C-28.63264755 9.29520888 -25.18204852 7.87645936 -21.73077393 6.45925903 C-20.08773027 5.78253687 -18.44606232 5.10246407 -16.80584717 4.41891479 C-14.54592226 3.47757517 -12.28149384 2.54801527 -10.015625 1.62109375 C-9.34570526 1.33866821 -8.67578552 1.05624268 -7.98556519 0.76525879 C-3.34198945 -1.11399648 -3.34198945 -1.11399648 0 0 Z " fill="#FCFCFD" transform="translate(634,294)"/>
<path d="M0 0 C1.90234375 1.96875 1.90234375 1.96875 3.9375 4.5 C15.43366983 17.64115023 32.29244807 24.8921549 47.83862305 32.14160156 C72.67745016 43.76514211 72.67745016 43.76514211 79 56 C81.33256119 62.99768356 81.27417477 73.14303064 78.375 80 C77.25 82.06640625 77.25 82.06640625 76 84 C75.5875 84.64839844 75.175 85.29679687 74.75 85.96484375 C69.45572452 93.5603242 62.44813603 100.52379881 55 106 C54.34 106 53.68 106 53 106 C51.8826912 109.35192639 51.85798993 111.93711069 51.82421875 115.46875 C51.80037109 116.76296875 51.77652344 118.0571875 51.75195312 119.390625 C51.71715024 121.43304313 51.68766703 123.47490247 51.67407227 125.51757812 C51.59366502 135.64146942 51.05106159 146.77903019 43.66796875 154.59375 C37.03239174 160.18814748 30.59362685 163.73208784 22 165 C24.5194521 162.15192371 27.16854388 160.22902688 30.375 158.25 C38.56093245 152.85991968 42.72631568 145.43271736 45 136 C45.75783563 131.33994391 46.36017028 126.66123822 46.8737793 121.96826172 C47.73328984 114.49626772 48.67831736 107.35021342 54.75 102.25 C62.89438078 94.63154787 67.91566087 84.7045216 68.3125 73.5625 C68.17178869 67.15134091 66.91434227 62.43643561 62.9375 57.375 C54.01197862 50.15862101 43.1873609 45.42105778 32.98828125 40.29882812 C25.90145497 36.68334556 19.36503669 32.77377752 13 28 C11.97648437 27.24074219 10.95296875 26.48148437 9.8984375 25.69921875 C2.22040762 19.57818874 -4.3289093 12.71557168 -9 4 C-9 3.01 -9 2.02 -9 1 C-5.54241287 -0.63274948 -3.60180642 -1.45835853 0 0 Z " fill="#FAFAFC" transform="translate(418,416)"/>
<path d="M0 0 C0.99 0.33 1.98 0.66 3 1 C2.5153125 1.48726562 2.030625 1.97453125 1.53125 2.4765625 C-14.56727884 19.50385262 -21.44875922 41.87178117 -21.15234375 64.9921875 C-19.73111999 93.05224629 -6.71734258 115.13924439 11.42138672 135.73925781 C13.71281348 138.35827186 15.6436447 140.77865617 17 144 C15.3990869 145.15037471 13.79414775 146.29514816 12.1875 147.4375 C11.29417969 148.07558594 10.40085937 148.71367187 9.48046875 149.37109375 C7 151 7 151 4 152 C3.00683259 153.71123832 3.00683259 153.71123832 2 156 C0.55612951 158.45224158 -0.97262059 160.84913524 -2.5 163.25 C-3.10521484 164.22453125 -3.10521484 164.22453125 -3.72265625 165.21875 C-4.76024041 166.84875019 -5.87453662 168.42939066 -7 170 C-7.66 170 -8.32 170 -9 170 C-7.71033868 159.81846329 -6.18802718 151.85133869 2.1171875 145.25390625 C4.95227742 143.36580694 7.80581809 142.17337294 11 141 C9.98292969 140.29037109 9.98292969 140.29037109 8.9453125 139.56640625 C-11.90409171 124.75235589 -28.46680677 104.85546714 -33 79 C-34.47111116 55.03871982 -31.64379256 32.82903162 -16.3359375 13.62890625 C-11.59387087 8.29209883 -6.42505731 3.24361764 0 0 Z " fill="#3C4E9E" transform="translate(418,191)"/>
<path d="M0 0 C4.29 0 8.58 0 13 0 C17.57257555 12.62750608 22.1240395 25.26212503 26.5625 37.9375 C27.08166992 39.41005249 27.08166992 39.41005249 27.61132812 40.91235352 C27.92650391 41.81655029 28.24167969 42.72074707 28.56640625 43.65234375 C28.84427979 44.44632568 29.12215332 45.24030762 29.40844727 46.05834961 C30 48 30 48 30 50 C31.32 50 32.64 50 34 50 C34 52.64 34 55.28 34 58 C27.4 58 20.8 58 14 58 C14 55.36 14 52.72 14 50 C15.32 50 16.64 50 18 50 C17.34 47.36 16.68 44.72 16 42 C9.73 42 3.46 42 -3 42 C-3.33 43.98 -3.66 45.96 -4 48 C-4.33 48.66 -4.66 49.32 -5 50 C-3.68 50 -2.36 50 -1 50 C-1 52.64 -1 55.28 -1 58 C-7.6 58 -14.2 58 -21 58 C-21 55.36 -21 52.72 -21 50 C-19.68 50 -18.36 50 -17 50 C-16.84072021 49.43909668 -16.68144043 48.87819336 -16.51733398 48.30029297 C-14.33177263 40.7972601 -11.72327237 33.4707876 -9.0625 26.125 C-5.92830597 17.45075386 -2.88258021 8.76143869 0 0 Z " fill="#3C4F9E" transform="translate(424,84)"/>
<path d="M0 0 C1.70972361 2.44814245 1.50357981 4.36002816 1.42578125 7.30859375 C1.4103125 8.29085937 1.39484375 9.273125 1.37890625 10.28515625 C1.17578125 12.68359375 1.17578125 12.68359375 0.17578125 13.68359375 C-1.63671875 13.81640625 -1.63671875 13.81640625 -3.82421875 13.80859375 C-4.54609375 13.81117187 -5.26796875 13.81375 -6.01171875 13.81640625 C-7.82421875 13.68359375 -7.82421875 13.68359375 -8.82421875 12.68359375 C-9.19182606 10.35541411 -9.52663456 8.02175525 -9.82421875 5.68359375 C-15.26490355 3.71568648 -20.16445566 3.04928232 -25.82421875 4.68359375 C-27.76047579 5.75005845 -27.76047579 5.75005845 -28.82421875 7.68359375 C-29.01121662 10.76016196 -29.01121662 10.76016196 -27.82421875 13.68359375 C-25.50663219 15.29045314 -25.50663219 15.29045314 -22.51171875 16.18359375 C-18.01650206 17.85923008 -13.64805631 19.59879138 -9.32421875 21.68359375 C-8.36515625 22.13734375 -7.40609375 22.59109375 -6.41796875 23.05859375 C-2.89217082 25.26752739 -0.67910765 27.97381595 1.17578125 31.68359375 C1.59171651 36.20289029 1.73426959 40.33146408 -0.01171875 44.55859375 C-4.47017314 49.78574717 -8.83424996 52.39580547 -15.6796875 53.0546875 C-24.37319709 53.29767379 -31.5384801 53.04964607 -38.82421875 47.68359375 C-39.40042969 47.26078125 -39.97664063 46.83796875 -40.5703125 46.40234375 C-42.46044931 43.81150202 -42.11341126 41.6485617 -42.01171875 38.49609375 C-41.98464844 37.40941406 -41.95757812 36.32273438 -41.9296875 35.203125 C-41.89488281 34.37167969 -41.86007812 33.54023437 -41.82421875 32.68359375 C-38.52421875 32.68359375 -35.22421875 32.68359375 -31.82421875 32.68359375 C-31.69401042 34.70182292 -31.56380208 36.72005208 -31.43359375 38.73828125 C-30.99309561 40.81142907 -30.99309561 40.81142907 -29.15625 41.92578125 C-26.26508859 42.86528764 -23.79989233 42.94865285 -20.76171875 42.93359375 C-19.19744141 42.94132812 -19.19744141 42.94132812 -17.6015625 42.94921875 C-14.6129289 42.88431952 -14.6129289 42.88431952 -11.82421875 40.68359375 C-11.24079522 37.22590184 -11.24079522 37.22590184 -11.82421875 33.68359375 C-15.08369944 30.41584026 -19.37032822 29.27858015 -23.63671875 27.80859375 C-36.48205396 23.15906409 -36.48205396 23.15906409 -40.76171875 16.80859375 C-42.19612072 12.58976443 -42.76142356 9.08203186 -41.09765625 4.82421875 C-38.40753236 -0.29357791 -35.17711744 -3.35603944 -29.76171875 -5.56640625 C-19.23872886 -8.049103 -8.85052058 -6.38677823 0 0 Z " fill="#3C4F9E" transform="translate(379.82421875,89.31640625)"/>
<path d="M0 0 C3.1917305 2.88613928 4.92954635 5.49420295 6.625 9.4375 C7.23214844 10.82775391 7.23214844 10.82775391 7.8515625 12.24609375 C8.92557885 14.82154112 9.9734263 17.40531142 11 20 C11.41507813 19.64808594 11.83015625 19.29617188 12.2578125 18.93359375 C25.30802944 8.47703918 39.4645685 3.68211595 56 3 C53.2285956 5.92501573 50.3967933 8.18622528 47.0625 10.4375 C34.83404645 19.27459577 25.61207963 30.0374765 18 43 C17.65759277 43.58297852 17.31518555 44.16595703 16.96240234 44.76660156 C14.09193879 49.71080731 14.09193879 49.71080731 12 55 C14.29322623 62.72847022 23.11777702 69.51952299 29.56640625 73.84375 C30.03949219 74.2253125 30.51257813 74.606875 31 75 C31 75.66 31 76.32 31 77 C27.37 78.32 23.74 79.64 20 81 C11.27875399 72.42172524 11.27875399 72.42172524 9 69 C9 68.34 9 67.68 9 67 C8.34 67 7.68 67 7 67 C6.87882813 67.92941406 6.75765625 68.85882813 6.6328125 69.81640625 C6.12657008 73.55091766 5.57457781 77.27543182 5 81 C4.89042969 81.78632813 4.78085938 82.57265625 4.66796875 83.3828125 C4.3125 85.1875 4.3125 85.1875 3 88 C-0.53673196 89.99343074 -2.93619191 91 -7 91 C-6.64723359 80.54047595 -5.12512579 70.09371114 -0.87109375 60.4375 C0.5586028 56.43691414 0.54011133 53.29819616 -1.09375 49.37109375 C-1.5578125 48.40300781 -2.021875 47.43492187 -2.5 46.4375 C-5.47502332 38.63333118 -5.46185631 31.1063302 -5.4375 22.8125 C-5.43492187 21.51046631 -5.43234375 20.20843262 -5.4296875 18.86694336 C-5.28100886 9.42151329 -5.28100886 9.42151329 -3 6 C-2.93530518 6.648479 -2.87061035 7.29695801 -2.80395508 7.96508789 C-1.89998189 28.16641421 -1.89998189 28.16641421 6 46 C6.54527344 45.17757812 7.09054688 44.35515625 7.65234375 43.5078125 C18.35982981 27.55824479 31.06491062 15.24796356 48 6 C31.88611506 12.0096866 18.1694417 19.59446684 6 32 C5.90203125 30.92363281 5.8040625 29.84726562 5.703125 28.73828125 C4.85872541 20.25235786 3.58019117 12.53493701 0.8046875 4.44140625 C0 2 0 2 0 0 Z " fill="#F8F9FB" transform="translate(218,367)"/>
<path d="M0 0 C17.30177882 6.37953717 38.51974256 5.37937409 55.421875 -1.73828125 C58.47685939 -3.24984363 61.4170287 -4.8173463 64.3203125 -6.6015625 C66.421875 -7.73828125 66.421875 -7.73828125 69.421875 -7.73828125 C66.06243971 -3.39849031 62.70900967 -0.1271198 58.046875 2.82421875 C57.14690796 3.39946289 57.14690796 3.39946289 56.22875977 3.98632812 C40.76083276 13.43861698 20.51435718 16.24233892 2.83203125 12.42578125 C-5.80634787 10.14943108 -14.07054178 6.54236052 -22.31542969 3.15014648 C-40.87106162 -4.4386498 -64.20908955 -9.55435741 -83.578125 -1.73828125 C-86.83429022 -0.19285219 -90.0230998 1.41249226 -93.1796875 3.15234375 C-93.97117188 3.5184375 -94.76265625 3.88453125 -95.578125 4.26171875 C-96.238125 3.93171875 -96.898125 3.60171875 -97.578125 3.26171875 C-68.46828228 -23.10837407 -32.72132608 -14.01793899 0 0 Z " fill="#F8F8FB" transform="translate(287.578125,279.73828125)"/>
<path d="M0 0 C9.16334208 3.35772582 17.87869252 4.74490337 27.6171875 4.6484375 C28.70878174 4.64013916 29.80037598 4.63184082 30.92504883 4.62329102 C44.18173571 4.34717145 54.89402197 0.89527174 66.4765625 -5.3984375 C69.3046875 -6.7890625 69.3046875 -6.7890625 72.3046875 -6.7890625 C68.9317896 -2.42376633 65.56202001 0.82194573 60.8671875 3.7734375 C60.26390625 4.15693359 59.660625 4.54042969 59.0390625 4.93554688 C42.83485932 14.84929851 22.83654893 16.99167658 4.4296875 12.7734375 C-2.24044021 10.97866072 -8.6039376 8.33540832 -15.0078125 5.7734375 C-38.77796483 -3.72373842 -61.48203149 -8.49637435 -86.0546875 1.58984375 C-88.63606068 2.73966861 -91.17557914 3.93273596 -93.6953125 5.2109375 C-91.77133186 -0.56100441 -85.15417229 -3.45241488 -80.0078125 -6.25 C-53.50597771 -18.96163587 -25.51562988 -11.5557108 0 0 Z " fill="#F8F8FB" transform="translate(284.6953125,305.7890625)"/>
<path d="M0 0 C14.88064204 6.0272211 29.68746125 8.07913419 45.53100586 4.97900391 C46.39072998 4.81174805 47.2504541 4.64449219 48.13623047 4.47216797 C55.72174202 2.83364706 62.13966839 -0.1427006 68.87866211 -3.91162109 C71.96850586 -5.52099609 71.96850586 -5.52099609 74.96850586 -5.52099609 C71.49046307 -0.99236252 68.12292393 2.10814607 63.28100586 5.10400391 C62.66668701 5.49080322 62.05236816 5.87760254 61.41943359 6.27612305 C56.49022326 9.30844524 51.49675434 11.72703025 45.96850586 13.47900391 C44.95530273 13.83349609 43.94209961 14.18798828 42.89819336 14.55322266 C21.88229909 20.42775537 0.56556476 12.32106531 -18.63305664 4.60400391 C-37.9637885 -3.10947547 -59.71457449 -6.47440537 -79.57055664 1.49853516 C-81.74967319 2.44613144 -83.88925974 3.45160578 -86.03149414 4.47900391 C-87.69344152 5.15734978 -89.35748317 5.83099966 -91.03149414 6.47900391 C-91.03149414 5.81900391 -91.03149414 5.15900391 -91.03149414 4.47900391 C-89.14739451 2.93221889 -87.28738215 1.54012564 -85.28149414 0.16650391 C-84.69529297 -0.23576416 -84.1090918 -0.63803223 -83.50512695 -1.05249023 C-56.79552634 -18.84573438 -27.643268 -11.23335539 0 0 Z " fill="#F8F9FB" transform="translate(282.031494140625,331.52099609375)"/>
<path d="M0 0 C7.92 0 15.84 0 24 0 C24 2.64 24 5.28 24 8 C22.02 8 20.04 8 18 8 C18 21.86 18 35.72 18 50 C19.98 50 21.96 50 24 50 C24 52.64 24 55.28 24 58 C16.08 58 8.16 58 0 58 C0 55.36 0 52.72 0 50 C2.97 49.505 2.97 49.505 6 49 C6 35.47 6 21.94 6 8 C4.35 8 2.7 8 1 8 C0.67 7.67 0.34 7.34 0 7 C0 4.69 0 2.38 0 0 Z " fill="#3F519F" transform="translate(285,84)"/>
<path d="M0 0 C5.8759779 2.70294984 8.74327907 7.11250629 11 13 C11.63164376 16.33935194 11.92202865 19.6047023 12 23 C11.43796875 22.28457031 10.8759375 21.56914063 10.296875 20.83203125 C8.02763314 18.03407147 5.66948846 15.35605345 3.25 12.6875 C2.45078125 11.80449219 1.6515625 10.92148437 0.828125 10.01171875 C0.22484375 9.34785156 -0.3784375 8.68398438 -1 8 C-2.92309422 8.03955898 -2.92309422 8.03955898 -5 9 C-9.837486 16.76247754 -9.95391237 26.12555736 -10.203125 35.0390625 C-10.23390137 36.1027002 -10.26467773 37.16633789 -10.29638672 38.26220703 C-10.34805938 40.39041444 -10.38148138 42.51915764 -10.39501953 44.64794922 C-10.52905197 50.76479266 -11.16934269 54.02454856 -15 59 C-15.88272237 61.94818923 -15.88272237 61.94818923 -16.25 64.875 C-16.39953125 65.84179688 -16.5490625 66.80859375 -16.703125 67.8046875 C-16.80109375 68.52914062 -16.8990625 69.25359375 -17 70 C-19 69 -19 69 -20 66 C-20.55020173 60.16786162 -19.36047692 57.68430116 -16 53 C-15.04061481 50.04804557 -14.94745587 48.30621387 -15.47338867 45.24121094 C-16.38884195 39.60673819 -16.26808214 33.94733071 -16.3125 28.25 C-16.34150391 27.02539062 -16.37050781 25.80078125 -16.40039062 24.5390625 C-16.4611951 15.8019274 -15.63999575 8.13188706 -9.6875 1.375 C-6.12521114 -0.4475664 -3.95889351 -0.55563418 0 0 Z " fill="#F7F7FB" transform="translate(418,521)"/>
<path d="M0 0 C3.1917305 2.88613928 4.92954635 5.49420295 6.625 9.4375 C7.02976563 10.36433594 7.43453125 11.29117187 7.8515625 12.24609375 C8.92557885 14.82154112 9.9734263 17.40531142 11 20 C11.62261719 19.47212891 11.62261719 19.47212891 12.2578125 18.93359375 C25.30802944 8.47703918 39.4645685 3.68211595 56 3 C54.68 4.32 53.36 5.64 52 7 C51.505 6.01 51.505 6.01 51 5 C33.71507794 11.31859929 19.05939162 18.68725158 6 32 C5.85304687 30.38544922 5.85304687 30.38544922 5.703125 28.73828125 C4.85872541 20.25235786 3.58019117 12.53493701 0.8046875 4.44140625 C0 2 0 2 0 0 Z " fill="#F2F3F8" transform="translate(218,367)"/>
<path d="M0 0 C2.10402861 4.20805723 1.00183539 9.74912262 0.86791992 14.36401367 C0.81354708 16.39832455 0.7843651 18.43198389 0.75585938 20.46679688 C0.48953164 29.95647463 -0.45343383 40.31301919 -7.33203125 47.59375 C-13.96760826 53.18814748 -20.40637315 56.73208784 -29 58 C-26.4805479 55.15192371 -23.83145612 53.22902688 -20.625 51.25 C-12.44040999 45.86080362 -8.27112276 38.43232064 -6 29 C-5.24224178 24.31057979 -4.63846448 19.60265607 -4.1262207 14.88037109 C-3.49424231 9.36695466 -2.48145714 4.97666197 0 0 Z " fill="#F1F2F8" transform="translate(469,523)"/>
<path d="M0 0 C0.13535156 0.98355469 0.27070313 1.96710938 0.41015625 2.98046875 C2.81058802 18.94821894 7.67250242 34.58137574 15 49 C11.75486076 47.63643817 10.24894333 46.34906049 8.4140625 43.359375 C7.96087646 42.62509277 7.50769043 41.89081055 7.04077148 41.13427734 C6.57356689 40.34746582 6.1063623 39.5606543 5.625 38.75 C5.14039307 37.94385254 4.65578613 37.13770508 4.15649414 36.30712891 C-8.89653763 14.17230103 -8.89653763 14.17230103 -7.625 4 C-7.41875 3.34 -7.2125 2.68 -7 2 C-1.125 0 -1.125 0 0 0 Z " fill="#F6F7FA" transform="translate(463,399)"/>
<path d="M0 0 C3.32353304 3.32353304 3.95689083 7.71129515 4.04296875 12.28125 C3.66249117 17.44866649 2.54635017 22.07000772 -1 26 C-6.49102851 30.53737639 -11.57124875 32.88466754 -18.74609375 32.390625 C-24.54103084 31.38630315 -28.25206833 28.40933138 -32 24 C-32 23.01 -32 22.02 -32 21 C-31.0925 21.66 -30.185 22.32 -29.25 23 C-24.11233399 25.9298299 -18.74271973 25.79072219 -13 25 C-7.84061886 22.51244124 -4.35596835 18.90988828 -1.9296875 13.703125 C-0.93031285 10.79738023 -0.5961747 8.24708336 -0.375 5.1875 C-0.30023438 4.21167969 -0.22546875 3.23585938 -0.1484375 2.23046875 C-0.09945312 1.49441406 -0.05046875 0.75835938 0 0 Z " fill="#F3F4F9" transform="translate(435,583)"/>
<path d="M0 0 C2.46091594 2.46091594 3.02845243 4.518796 4.125 7.8125 C4.47820312 8.85019531 4.83140625 9.88789062 5.1953125 10.95703125 C6 14 6 14 6 19 C2.04 19 -1.92 19 -6 19 C-4.02 12.73 -2.04 6.46 0 0 Z " fill="#F5F6FA" transform="translate(430,98)"/>
<path d="M0 0 C3 0.25 3 0.25 5 2.25 C5.25 5.25 5.25 5.25 5 8.25 C3 10.25 3 10.25 0 10.5 C-3 10.25 -3 10.25 -5 8.25 C-5.25 5.25 -5.25 5.25 -5 2.25 C-3 0.25 -3 0.25 0 0 Z " fill="#3B4D9D" transform="translate(396,108.75)"/>
<path d="M0 0 C2 2 2 2 2.25 5 C2 8 2 8 0 10 C-3 10.25 -3 10.25 -6 10 C-6.66 9.34 -7.32 8.68 -8 8 C-7.75 4.4375 -7.75 4.4375 -7 1 C-4.48718205 -0.25640898 -2.78302919 -0.20872719 0 0 Z " fill="#394C9C" transform="translate(325,109)"/>
<path d="M0 0 C3.85984037 1.31799427 6.26356172 3.60495848 8.5625 6.875 C9.84338108 9.81433532 10.7757328 12.76934 11.5625 15.875 C10.9025 15.875 10.2425 15.875 9.5625 15.875 C7.72948989 13.6401724 6.08786247 11.29726128 4.4140625 8.94140625 C2.73368095 6.77696527 2.73368095 6.77696527 0.4765625 5.96875 C-1.68975543 5.64237908 -1.68975543 5.64237908 -3.6875 7.8125 C-4.55375 8.8334375 -4.55375 8.8334375 -5.4375 9.875 C-6.0975 9.545 -6.7575 9.215 -7.4375 8.875 C-3.42748731 1.23038006 -3.42748731 1.23038006 0 0 Z " fill="#EEEFF6" transform="translate(417.4375,567.125)"/>
<path d="M0 0 C3.125 0.375 3.125 0.375 6 1 C6.625 3.875 6.625 3.875 7 7 C5 9 5 9 2.5 9.25 C0 9 0 9 -2 7 C-2.25 4.5 -2.25 4.5 -2 2 C-1.34 1.34 -0.68 0.68 0 0 Z " fill="#4153A0" transform="translate(304,519)"/>
<path d="M0 0 C0.33 0.66 0.66 1.32 1 2 C0.20078125 2.24234375 -0.5984375 2.4846875 -1.421875 2.734375 C-8.1863375 4.79864759 -14.88531178 6.96400653 -21.5390625 9.36328125 C-24 10 -24 10 -27 9 C-23.06903205 7.29698126 -19.12929465 5.61528952 -15.1875 3.9375 C-13.50817383 3.20950195 -13.50817383 3.20950195 -11.79492188 2.46679688 C-10.72177734 2.01240234 -9.64863281 1.55800781 -8.54296875 1.08984375 C-7.55321045 0.66566162 -6.56345215 0.24147949 -5.54370117 -0.19555664 C-3 -1 -3 -1 0 0 Z " fill="#E4E7F2" transform="translate(90,517)"/>
<path d="M0 0 C1.28080392 3.84241177 0.30805584 5.22117203 -1 9 C-1.37531446 11.32694964 -1.71917202 13.65976685 -2 16 C-4 15 -4 15 -5 12 C-5.375 8.625 -5.375 8.625 -5 5 C-2.5 2.0625 -2.5 2.0625 0 0 Z " fill="#EDEFF6" transform="translate(403,575)"/>
<path d="M0 0 C0.66 0.33 1.32 0.66 2 1 C1.34 1.66 0.68 2.32 0 3 C0.33 3.66 0.66 4.32 1 5 C-4.445 6.485 -4.445 6.485 -10 8 C-6.72724974 4.72724974 -3.85411644 2.45261955 0 0 Z " fill="#E2E5F1" transform="translate(450,573)"/>
<path d="M0 0 C-1.32 1.32 -2.64 2.64 -4 4 C-4.33 3.34 -4.66 2.68 -5 2 C-6.98 2.66 -8.96 3.32 -11 4 C-11 3.34 -11 2.68 -11 2 C-11.99 1.67 -12.98 1.34 -14 1 C-9.27685687 0.22887459 -4.78478822 -0.09764874 0 0 Z " fill="#D0D5E8" transform="translate(274,370)"/>
<path d="M0 0 C-3.96 1.98 -7.92 3.96 -12 6 C-11 2 -11 2 -9.2578125 0.91796875 C-8.55398438 0.67691406 -7.85015625 0.43585938 -7.125 0.1875 C-6.42632812 -0.06644531 -5.72765625 -0.32039063 -5.0078125 -0.58203125 C-3 -1 -3 -1 0 0 Z " fill="#5766AB" transform="translate(269,373)"/>
<path d="M0 0 C0.66 0.33 1.32 0.66 2 1 C1 4 1 4 -1.9375 5.75 C-3.4534375 6.36875 -3.4534375 6.36875 -5 7 C-5.66 6.67 -6.32 6.34 -7 6 C-4.69 4.02 -2.38 2.04 0 0 Z " fill="#CED3E7" transform="translate(197,277)"/>
</svg>
