<svg width="442" height="70" viewBox="0 0 442 70" fill="none" xmlns="http://www.w3.org/2000/svg">
<g clip-path="url(#clip0_433_3756)">
<path d="M0 35.0032C0 25.7754 3.31139 17.8601 9.92915 11.2624C16.5519 4.65964 24.4772 1.36328 33.705 1.36328H67.3449V13.5368H33.705C27.8086 13.5368 22.7589 15.6508 18.5508 19.879C14.3427 24.1071 12.2386 29.1519 12.2386 35.0032C12.2386 40.8544 14.3427 45.8441 18.5508 50.0923C22.7589 54.3405 27.8086 56.4646 33.705 56.4646H67.3449V68.7032H33.705C24.4321 68.7032 16.5018 65.4018 9.89909 58.8041C3.30137 52.2063 0 44.271 0 35.0032Z" fill="black"/>
<path d="M104.382 1.36328C113.61 1.36328 121.52 4.66465 128.123 11.2624C134.726 17.8601 138.022 25.7754 138.022 35.0032C138.022 44.231 134.721 52.2063 128.123 58.8041C121.525 65.4018 113.61 68.7032 104.382 68.7032C95.1545 68.7032 87.1791 65.4018 80.5763 58.8041C73.9736 52.2063 70.6772 44.271 70.6772 35.0032C70.6772 25.7353 73.9786 17.8601 80.5763 11.2624C87.1741 4.66465 95.1094 1.36328 104.382 1.36328ZM89.228 19.8489C85.0199 24.057 82.9158 29.1118 82.9158 35.0032C82.9158 40.8945 85.0199 45.9493 89.228 50.1574C93.4361 54.3655 98.4859 56.4696 104.382 56.4696C110.279 56.4696 115.318 54.3655 119.501 50.1574C123.689 45.9543 125.779 40.8995 125.779 35.0032C125.779 29.1068 123.684 24.057 119.501 19.8489C115.313 15.6408 110.274 13.5368 104.382 13.5368C98.4909 13.5368 93.4361 15.6408 89.228 19.8489Z" fill="black"/>
<path d="M212.028 48.7758C212.028 43.4806 213.887 38.8868 217.604 34.9993C213.887 31.242 212.028 26.6481 212.028 21.2227C212.028 15.7972 213.972 11.1332 217.86 7.22068C221.747 3.31314 226.426 1.35938 231.892 1.35938H279.373V13.5329H231.892C229.798 13.5329 228.004 14.3043 226.511 15.8373C225.013 17.3753 224.267 19.1687 224.267 21.2177C224.267 23.2666 225.013 25.1202 226.511 26.6331C228.004 28.151 229.798 28.9075 231.892 28.9075H257.777V41.1411H231.892C229.798 41.1411 228.004 41.9026 226.511 43.4155C225.013 44.9334 224.267 46.7118 224.267 48.7658C224.267 50.8198 225.013 52.7184 226.511 54.2113C228.004 55.7042 229.798 56.4506 231.892 56.4506H279.373V68.6892H231.892C226.421 68.6892 221.747 66.7455 217.86 62.858C213.972 58.9705 212.028 54.2714 212.028 48.7608V48.7758Z" fill="black"/>
<path d="M198.794 11.2624C192.196 4.66465 184.281 1.36328 175.053 1.36328H141.348V13.5368H175.053C180.904 13.5368 185.934 15.6408 190.142 19.8489C194.35 24.0571 196.454 29.1118 196.454 35.0032C196.454 40.8945 194.35 45.9493 190.142 50.1574C185.934 54.3655 180.904 56.4696 175.053 56.4696H141.348V68.7082H175.053C184.236 68.7082 192.141 65.3968 198.759 58.774C205.377 52.1562 208.688 44.231 208.688 35.0032C208.688 25.7754 205.387 17.8601 198.789 11.2624H198.794Z" fill="black"/>
<path d="M334.324 1.32812C343.551 1.32812 351.462 4.62949 358.064 11.2272C364.667 17.8249 367.964 25.7402 367.964 34.968C367.964 44.1958 364.662 52.1712 358.064 58.7689C351.467 65.3666 343.551 68.668 334.324 68.668C325.096 68.668 317.12 65.3666 310.518 58.7689C303.915 52.1712 300.619 44.2359 300.619 34.968C300.619 25.7001 303.92 17.8249 310.518 11.2272C317.115 4.62949 325.051 1.32812 334.324 1.32812ZM319.169 19.8138C314.961 24.0219 312.857 29.0766 312.857 34.968C312.857 40.8594 314.961 45.9141 319.169 50.1222C323.378 54.3303 328.427 56.4344 334.324 56.4344C340.22 56.4344 345.26 54.3303 349.443 50.1222C353.631 45.9191 355.72 40.8644 355.72 34.968C355.72 29.0716 353.626 24.0219 349.443 19.8138C345.255 15.6057 340.215 13.5016 334.324 13.5016C328.432 13.5016 323.378 15.6057 319.169 19.8138Z" fill="black"/>
<path d="M392.091 35.88L370.76 55.0119C367.639 57.8123 367.043 63.0524 369.427 66.7145C370.83 68.8686 372.944 69.9958 375.083 69.9958C376.591 69.9958 378.104 69.4397 379.396 68.2825L403.808 46.3853L392.091 35.875V35.88Z" fill="url(#paint0_linear_433_3756)"/>
<path d="M392.091 34.1853L403.808 23.6751L379.396 1.77782C376.275 -1.02759 371.812 -0.326235 369.427 3.34585C367.043 7.00791 367.639 12.253 370.76 15.0484L392.091 34.1803V34.1853Z" fill="url(#paint1_linear_433_3756)"/>
<path d="M434.413 69.9358C432.905 69.9358 431.392 69.3797 430.1 68.2225L393.033 34.9734L430.1 1.71923C433.221 -1.08618 437.684 -0.384829 440.069 3.28725C442.454 6.94932 441.857 12.1944 438.736 14.9898L416.463 34.9684L438.736 54.9469C441.857 57.7473 442.454 62.9874 440.069 66.6495C438.666 68.8036 436.552 69.9308 434.413 69.9308V69.9358Z" fill="black"/>
</g>
<defs>
<linearGradient id="paint0_linear_433_3756" x1="372.468" y1="68.3828" x2="414.299" y2="29.3074" gradientUnits="userSpaceOnUse">
<stop stop-color="#808080"/>
<stop offset="1"/>
</linearGradient>
<linearGradient id="paint1_linear_433_3756" x1="371.466" y1="6.26147" x2="421.563" y2="50.3465" gradientUnits="userSpaceOnUse">
<stop stop-color="#808080"/>
<stop offset="1"/>
</linearGradient>
<clipPath id="clip0_433_3756">
<rect width="441.532" height="70" fill="white"/>
</clipPath>
</defs>
</svg>
