<svg width="46" height="46" viewBox="0 0 46 46" fill="none" xmlns="http://www.w3.org/2000/svg">
<path d="M22.9999 3.83203C12.4583 3.83203 3.83325 12.457 3.83325 22.9987C3.83325 33.5404 12.4583 42.1654 22.9999 42.1654C33.5416 42.1654 42.1666 33.5404 42.1666 22.9987C42.1666 12.457 33.5416 3.83203 22.9999 3.83203ZM22.9999 38.332C14.5474 38.332 7.66659 31.4512 7.66659 22.9987C7.66659 14.5462 14.5474 7.66536 22.9999 7.66536C31.4524 7.66536 38.3333 14.5462 38.3333 22.9987C38.3333 31.4512 31.4524 38.332 22.9999 38.332ZM31.7974 14.527L19.1666 27.1579L14.2024 22.2129L11.4999 24.9154L19.1666 32.582L34.4999 17.2487L31.7974 14.527Z" fill="black"/>
</svg>
